<svg width="350" height="232" viewBox="0 0 350 232" fill="none" xmlns="http://www.w3.org/2000/svg">
<path opacity="0.3" d="M15.91 158.339C19.2098 168.596 23.8639 178.617 29.7447 187.368C40.5427 203.435 57.4502 215.692 77.258 217.058C84.1394 217.532 91.0775 216.965 97.8562 215.743C126.529 210.576 153.97 200.377 182.213 193.413C210.179 186.516 237.624 187.795 266.136 185.889C281.392 184.869 299.141 181.161 311.159 170.963C322.903 160.998 331.654 146.599 336.204 131.642C348.533 91.1186 330.119 42.4987 293.315 22.4949C273.512 11.7315 248.731 15.1736 228.65 22.616C215.934 27.329 203.809 33.8361 190.214 35.6085C169.909 38.2551 149.71 30.8619 129.488 27.2005C96.1263 21.157 58.7523 26.6721 34.9892 51.3212C11.0106 76.1856 5.62407 113.488 12.635 146.114C13.5092 150.183 14.6032 154.28 15.91 158.339Z" stroke="#F6BB00" stroke-width="4.99957" stroke-miterlimit="10"/>
<path d="M180.071 156.297V229.96" stroke="#F8FAFB" stroke-width="4.99957" stroke-miterlimit="10"/>
<path d="M190.9 227.965H169.242V231.953H190.9V227.965Z" fill="#1F3C88"/>
<path d="M241.369 154.148H118.771V158.447H241.369V154.148Z" fill="#F8FAFB"/>
<path d="M77.6726 205.097C77.6726 205.097 82.9965 213.226 93.1916 214.421L89.8958 203.488L77.6726 205.097Z" fill="#102048"/>
<path d="M91.0741 207.146L82.6253 201.121L78.9919 211.156L86.4349 217.107L91.0741 207.146Z" fill="#F9B384"/>
<path d="M70.9238 217.999L86.7126 231.642C87.1369 232.009 87.7809 231.602 87.6263 231.065L84.5841 220.516L87.1667 215.777L79.0554 211.082C76.3874 212.715 73.9593 214.706 71.843 217.002L70.9238 217.999Z" fill="#3748AC"/>
<path d="M84.5272 158.59C107.412 160.189 114.002 158.851 117.062 167.978C120.947 179.571 93.193 214.419 93.193 214.419C93.193 214.419 88.2189 207.162 77.6741 205.095L92.0786 174.705L84.5272 158.59Z" fill="#1F3C88"/>
<path d="M55.5542 182.027V229.362" stroke="#F8FAFB" stroke-width="4.99957" stroke-miterlimit="10"/>
<path d="M62.4018 154.357C55.8103 154.357 52.6094 136.229 44.0643 138.805C20.9302 145.781 37.9202 206.871 84.4649 179.463L62.4018 154.357Z" fill="#F8FAFB"/>
<path d="M44.7476 231.888C44.7476 229.1 49.5861 226.84 55.554 226.84C61.5219 226.84 66.3604 229.1 66.3604 231.888H44.7476Z" fill="#1F3C88"/>
<path d="M129.281 128.438C132.28 130.001 134.332 132.322 134.904 135.829L129.114 136.023L129.281 128.438Z" fill="#6F3428"/>
<path d="M132.631 125.933C132.631 125.933 133.439 124.697 135.967 124.55C138.325 124.413 140.311 124.543 142.312 123.67C142.604 123.542 142.899 123.425 143.208 123.346L144.264 123.074L144.348 125.025C144.348 125.025 141.462 126.681 139.742 126.391C139.742 126.391 140.471 127.545 146.713 127.381C146.713 127.381 148.859 126.522 149.998 126.767C150.631 126.903 151.066 127.506 151.066 127.506L146.291 129.852L134.514 129.687L132.631 125.933Z" fill="#E28B6D"/>
<path d="M149.028 123.252L148.178 128.926L146.291 129.854L141.753 129.791L146.448 127.521C146.448 127.52 147.348 123.002 149.028 123.252Z" fill="#E28B6D"/>
<path d="M144.934 122.383L146.149 127.678L144.422 129.825L140.258 130.742L143.938 127.358C143.936 127.359 143.364 123.029 144.934 122.383Z" fill="#F9B384"/>
<path d="M126.893 130.301L132.632 125.93L138.826 128.081L141.446 127.58C141.446 127.58 140.324 124.029 141.897 123.203C141.897 123.203 143.253 125.04 143.579 127.693C143.638 128.168 141.226 130.503 141.226 130.503C140.608 130.901 135.578 131.106 135.578 131.106L130.285 137.342L126.893 130.301Z" fill="#F9B384"/>
<path d="M108.917 141.208C109.087 141.353 129.281 128.438 129.281 128.438C129.926 132.097 132.113 134.256 134.904 135.829L122.834 146.815L108.917 141.208Z" fill="#AE5140"/>
<path d="M107.787 217.032C107.787 217.032 117.73 220.532 126.664 213.951L115.18 208.484L107.787 217.032Z" fill="#102048"/>
<path d="M119.463 210.59L109.105 211.552L113.005 221.489L122.556 221.125L119.463 210.59Z" fill="#F9B384"/>
<path d="M111.601 231.908H132.385C132.948 231.908 133.165 231.182 132.693 230.877L123.419 224.904L122.558 221.09L113.007 221.391C112.075 224.359 111.602 227.449 111.602 230.557V231.908H111.601Z" fill="#3748AC"/>
<path d="M98.2972 107.807L97.7942 112.786L96.9578 121.01L85.9412 118.459C85.9412 118.459 88.5848 111.138 89.664 108.29C89.9067 107.633 90.0707 107.219 90.1046 107.18L91.5905 107.291L98.2972 107.807Z" fill="#F9B384"/>
<path d="M98.2973 107.81L97.713 113.583C94.6301 113.346 91.52 111.916 89.6912 108.217L91.5905 107.293L98.2973 107.81Z" fill="#E28B6D"/>
<path d="M98.7203 110.282C91.9403 112.014 87.2007 105.865 87.2007 105.865L86.737 101.9L86.6747 101.541L85.6294 95.1945L90.5222 89.0273L101.714 91.7907C101.719 91.7961 101.714 91.7961 101.714 91.7961C102.217 92.9787 102.652 94.1963 103.007 95.4125C103.187 96.0354 103.351 96.6623 103.487 97.2799C104.828 103.313 103.924 108.952 98.7203 110.282Z" fill="#F9B384"/>
<path d="M103.071 95.753C98.9967 88.2175 94.4374 90.2531 91.5796 92.5348C87.5517 95.753 88.1496 101.713 88.1496 101.713L86.7369 101.899L84.7372 102.157L82.9463 102.807C78.3355 100.295 79.839 92.816 82.3593 90.0741C86.1784 85.9142 92.8851 84.3052 97.5569 87.1533C98.0884 87.4735 98.5629 87.8314 98.9981 88.2189C100.236 89.3059 101.105 90.5907 101.715 91.7908V91.7962C102.523 93.3663 102.878 94.7843 103.008 95.4126C103.054 95.6292 103.071 95.753 103.071 95.753Z" fill="#102048"/>
<path d="M103.071 95.7532C100.625 90.0084 95.2172 89.7959 92.5057 92.2485C89.0148 95.4074 93.6717 99.8781 88.1498 101.712L86.6748 101.538L83.985 101.218L82.8042 93.6046L87.1371 89.0236L92.3634 87.1562L98.9956 88.2164C100.233 89.3035 101.102 90.5883 101.712 91.7884V91.7938C102.52 93.3638 102.876 94.7818 103.006 95.4101C103.055 95.6294 103.071 95.7532 103.071 95.7532Z" fill="#102048"/>
<path d="M84.9297 87.4467C84.4851 85.9573 83.593 84.4909 82.1586 83.8707C81.5987 83.6298 80.952 83.5316 80.3772 83.7348C79.8498 83.9218 79.8349 84.7008 79.3537 84.9106C79.0622 85.0371 78.9252 84.8622 78.6527 84.7667C78.2392 84.6214 77.7946 84.5999 77.3797 84.7573C77.0422 84.8851 76.7412 85.134 76.5473 85.438C76.4117 85.6519 76.3914 85.9439 76.226 86.139C76.0104 86.3946 75.7732 86.3677 75.4804 86.4645C74.8554 86.6717 74.3605 87.1776 74.1938 87.8153C74.1138 88.1234 74.1111 88.4396 74.1734 88.7503C74.2561 89.158 74.6669 89.4822 74.5842 89.9181C74.45 90.6191 73.4983 90.8195 73.3139 91.5823C73.2122 91.9994 73.2882 92.4515 73.5119 92.8174C73.7288 93.1712 74.1301 93.4 74.1789 93.8453C74.225 94.2677 73.9172 94.635 73.7315 95.0171C73.6217 95.2431 73.5512 95.5108 73.6515 95.7409C73.745 95.9589 73.9701 96.0934 74.1965 96.1687C74.8594 96.3853 75.2675 96.4674 75.7176 97.0378C76.0877 97.506 76.3697 98.0563 76.9378 98.32C77.8136 98.7263 78.9076 98.5326 79.7943 98.2446C80.9276 97.8774 81.916 97.171 82.8365 96.4203C83.4262 95.9387 84.0038 95.4261 84.424 94.7924C85.1168 93.7471 85.5398 92.0519 85.2239 90.8101C85.1033 90.3352 84.7806 90.0863 84.8714 89.571C85.0124 88.7772 85.1738 88.2647 84.9297 87.4467Z" fill="#102048"/>
<path d="M92.4364 134.061L100.119 142.163C99.2489 143.368 98.1982 144.933 97.1367 146.816C95.3282 150.006 93.4763 154.099 92.3347 158.853L57.8208 157.699C60.6393 148.903 69.6969 121.475 86.4306 115.493C94.024 112.774 100.023 117.444 104.318 123.36L90.1547 131.651L92.4364 134.061Z" fill="#FC6B58"/>
<path d="M125.712 148.781L141.244 145.875L149.019 150.643C149.721 151.072 149.414 152.146 148.59 152.146L139.283 151.847L129.71 153.7L125.712 148.781Z" fill="#F9B384"/>
<path d="M133.474 144.781C134.483 148.783 133.959 151.142 132.362 154.147L113.21 151.537C110.085 151.111 107.2 149.635 105.039 147.353L100.119 142.16L90.1533 131.647L104.317 123.355C109.486 130.475 114.348 137.625 114.348 137.625L133.474 144.781Z" fill="#FC6B58"/>
<path d="M93.609 179.255C93.609 179.255 70.5346 181.8 63.7194 176.529C57.4885 171.709 56.9394 161.812 57.8193 157.698C57.8193 157.698 70.8234 152.598 98.7391 160.199C105.458 162.029 110.869 166.97 113.335 173.436C117.673 184.806 124.4 203.255 126.663 213.952C126.663 213.952 111.871 212.98 107.786 217.033L93.609 179.255Z" fill="#708CD5"/>
<path d="M155.526 151.93H139.339V154.152H155.526V151.93Z" fill="white"/>
<path d="M156.514 154.151H153.173L165.979 122.641H169.32L156.514 154.151Z" fill="#102048"/>
<path d="M100.121 142.16C99.2502 143.366 98.1995 144.931 97.138 146.814C95.4935 142.895 93.3135 137.434 92.4377 134.059L100.121 142.16Z" fill="#AE5140"/>
<path d="M92.9747 102.422C91.4061 102.381 89.885 102.125 88.9075 101.915C88.4222 101.812 87.9206 101.96 87.5776 102.316L85.6294 104.346L87.1993 105.865C87.1993 105.865 89.3292 108.256 92.3917 109.646C93.9928 107.579 94.0538 104.71 92.9747 102.422Z" stroke="white" stroke-width="4.99957" stroke-miterlimit="10"/>
<path d="M103.739 98.5547C103.385 101.59 100.095 103.362 93.1049 102.369C92.9992 102.354 92.9178 102.455 92.9612 102.553C93.9428 104.808 93.9428 107.647 92.3945 109.647C94.6288 110.662 97.3578 111.145 100.124 109.775C105.845 106.939 103.739 98.5547 103.739 98.5547Z" fill="white" stroke="white" stroke-width="4.99957" stroke-miterlimit="10"/>
<path d="M88.3258 102.805C88.1184 101.499 87.2073 100.361 85.9235 100.005C84.3183 99.5615 82.6155 100.296 82.3932 102.048C82.0543 104.724 84.4362 107.457 88.7529 105.495L88.3258 102.805Z" fill="#F9B384"/>
<path d="M97.4138 99.6366C97.5426 100.148 97.342 100.638 96.9638 100.732C96.5856 100.826 96.1736 100.488 96.0448 99.9784C95.9161 99.467 96.1167 98.9772 96.4948 98.883C96.873 98.7888 97.2837 99.1252 97.4138 99.6366Z" fill="#102048"/>
<path d="M101.216 99.3543C101.588 99.2962 101.825 98.8421 101.746 98.3399C101.666 97.8377 101.3 97.4776 100.928 97.5356C100.556 97.5936 100.319 98.0477 100.399 98.55C100.478 99.0522 100.844 99.4123 101.216 99.3543Z" fill="#102048"/>
<path d="M94.196 99.5623C94.2096 99.1775 94.3289 98.8114 94.5418 98.4804C94.7505 98.1466 95.0827 97.8721 95.4637 97.7227C95.8487 97.5814 96.2581 97.5626 96.6377 97.6205C96.8262 97.6528 97.0078 97.712 97.1854 97.7658C97.3549 97.8479 97.5244 97.9192 97.6844 98.0107L97.6071 98.2166C97.4281 98.2032 97.2587 98.1695 97.0892 98.1466C96.9197 98.1372 96.7516 98.117 96.5889 98.1117C96.2622 98.109 95.9504 98.1453 95.6643 98.2435C95.381 98.3472 95.1383 98.5315 94.9227 98.7616C94.7139 98.9958 94.5458 99.2945 94.4116 99.5973L94.196 99.5623Z" fill="#102048"/>
<path d="M99.5498 97.286C99.6311 97.0156 99.7857 96.7841 99.9918 96.589C100.195 96.3911 100.464 96.2566 100.744 96.1826C101.028 96.1193 101.323 96.1207 101.593 96.192C101.728 96.2229 101.855 96.2835 101.982 96.3279C102.1 96.3965 102.218 96.4611 102.326 96.5378L102.25 96.702C101.996 96.6616 101.76 96.6038 101.525 96.5903C101.291 96.5701 101.067 96.5876 100.85 96.628C100.629 96.6643 100.434 96.772 100.24 96.8918C100.049 97.0156 99.8725 97.1851 99.7139 97.3628L99.5498 97.286Z" fill="#102048"/>
<path d="M86.497 103.059C86.337 102.814 86.1554 102.605 85.9507 102.427C85.7446 102.251 85.5182 102.107 85.2796 102.015C85.041 101.924 84.7956 101.883 84.5583 101.918C84.3211 101.957 84.0933 102.081 83.8697 102.269L83.688 102.146C83.8086 101.842 84.0757 101.562 84.4296 101.443C84.7807 101.321 85.1671 101.365 85.4884 101.494C85.8124 101.625 86.0903 101.839 86.3018 102.097C86.5133 102.354 86.6651 102.664 86.7072 102.987L86.497 103.059Z" fill="#E28B6D"/>
<path d="M88.2742 179.562L91.2337 179.119C92.2166 178.957 93.2036 178.818 94.1851 178.642L97.1365 178.151C98.1221 177.992 99.1064 177.826 100.096 177.684L100.145 177.898C99.1823 178.186 98.2075 178.414 97.2301 178.632C96.2499 178.84 95.2656 179.025 94.2773 179.191C93.2863 179.339 92.2952 179.491 91.2961 179.59C90.2983 179.693 89.2964 179.767 88.2918 179.783L88.2742 179.562Z" fill="#1F3C88"/>
<path d="M129.113 49.3008C120.597 49.3008 113.692 56.1528 113.692 64.6044C113.692 67.98 114.796 71.0972 116.661 73.6278V79.9L120.831 77.5106C123.224 79.0268 126.064 79.908 129.115 79.908C137.631 79.908 144.536 73.0561 144.536 64.6044C144.535 56.1528 137.631 49.3008 129.113 49.3008Z" fill="#99A1D2"/>
<path d="M122.022 66.3353C122.985 66.3353 123.765 65.5607 123.765 64.6051C123.765 63.6496 122.985 62.875 122.022 62.875C121.059 62.875 120.278 63.6496 120.278 64.6051C120.278 65.5607 121.059 66.3353 122.022 66.3353Z" fill="white"/>
<path d="M129.114 66.3353C130.076 66.3353 130.857 65.5607 130.857 64.6052C130.857 63.6496 130.076 62.875 129.114 62.875C128.151 62.875 127.37 63.6496 127.37 64.6052C127.37 65.5607 128.151 66.3353 129.114 66.3353Z" fill="white"/>
<path d="M136.205 66.3353C137.168 66.3353 137.949 65.5607 137.949 64.6052C137.949 63.6496 137.168 62.875 136.205 62.875C135.242 62.875 134.462 63.6496 134.462 64.6052C134.462 65.5607 135.242 66.3353 136.205 66.3353Z" fill="white"/>
<path d="M278.662 99.938L275.877 102.724L261.693 99.077C258.168 96.3553 256.01 91.594 257.125 87.7449C258.559 82.7952 264.327 79.1681 268.18 81.3759C268.18 81.3759 265.473 83.2782 265.855 84.9371C268.613 81.836 276.215 83.0038 279.89 87.1233C281.784 89.245 281.586 94.2955 278.662 99.938Z" fill="#102048"/>
<path d="M280.276 116.137L267.912 118.454L264.89 103.967L275.234 103.672C275.272 103.722 280.276 116.137 280.276 116.137Z" fill="#E28B6D"/>
<path d="M266.741 110.273C273.02 110.909 276.463 103.94 276.463 103.94L276.511 100.349L276.518 99.9967L276.601 93.7784L271.297 88.6875L261.478 93.1272C261.474 93.134 261.479 93.1326 261.479 93.1326C261.184 94.3421 260.953 95.5718 260.796 96.788C260.716 97.4109 260.654 98.0352 260.614 98.6446C260.22 104.614 262.703 109.864 266.741 110.273Z" fill="#F9B384"/>
<path d="M260.201 96.0539C261.696 92.5008 264.962 90.6415 267.69 92.6313C271.639 95.5131 273.679 93.3013 274.081 93.6914C276.887 96.4172 276.521 99.9972 276.521 99.9972L278.317 98.9492L278.683 97.3267L278.716 89.8787L274.139 86.2112L269.12 85.2734L263.221 87.3534C262.242 88.5898 260.092 90.7989 260.092 90.7989C259.569 92.4255 260.201 96.0539 260.201 96.0539Z" fill="#102048"/>
<path d="M270.835 101.725C272.26 101.329 274.299 100.02 275.495 99.2238C275.958 98.9143 276.59 99.1188 276.783 99.6395L277.787 102.357L276.593 104.027C276.593 104.027 275.03 106.598 272.432 108.401C270.661 106.813 270.032 104.26 270.544 102.018C270.576 101.871 270.691 101.764 270.835 101.725Z" stroke="white" stroke-width="4.7054" stroke-miterlimit="10"/>
<path d="M260.588 100.633C263.008 103.398 267.128 102.928 270.528 101.783C270.623 101.751 270.716 101.832 270.694 101.928C270.171 104.181 270.657 106.809 272.43 108.4C270.535 109.714 268.081 110.656 265.298 109.819C260.572 108.401 260.588 100.633 260.588 100.633Z" fill="white" stroke="white" stroke-width="4.7054" stroke-miterlimit="10"/>
<path d="M274.792 100.946C275.849 98.5284 278.823 97.1157 279.909 99.4647C280.996 101.814 279.729 105.059 275.386 104.599L274.792 100.946Z" fill="#F9B384"/>
<path d="M266.944 99.8351C266.909 100.36 267.195 100.808 267.584 100.834C267.973 100.859 268.317 100.456 268.354 99.9293C268.389 99.4045 268.103 98.9564 267.714 98.9308C267.325 98.9053 266.979 99.3103 266.944 99.8351Z" fill="#102048"/>
<path d="M262.448 99.3221C262.46 99.8308 262.775 100.236 263.15 100.226C263.527 100.218 263.823 99.7985 263.81 99.2912C263.798 98.7825 263.484 98.3775 263.107 98.3869C262.732 98.395 262.436 98.8135 262.448 99.3221Z" fill="#102048"/>
<path d="M269.89 99.2725C269.704 98.998 269.485 98.7343 269.237 98.5405C268.983 98.3507 268.712 98.2135 268.414 98.161C268.115 98.1139 267.802 98.1341 267.481 98.1933C267.321 98.2283 267.161 98.2781 266.996 98.3171C266.833 98.3696 266.673 98.4328 266.498 98.4772L266.385 98.2888C266.526 98.1704 266.681 98.0708 266.833 97.9605C267 97.8757 267.166 97.7855 267.347 97.721C267.71 97.5958 268.115 97.5433 268.521 97.6133C268.923 97.6927 269.299 97.904 269.565 98.196C269.834 98.4853 270.017 98.8231 270.099 99.1999L269.89 99.2725Z" fill="#102048"/>
<path d="M264.272 98.0059C264.085 97.8593 263.88 97.7247 263.67 97.6359C263.457 97.5525 263.246 97.4812 263.022 97.4839C262.801 97.4812 262.579 97.5054 262.351 97.566C262.122 97.6198 261.899 97.718 261.657 97.8027L261.552 97.6548C261.646 97.5592 261.75 97.4745 261.853 97.387C261.971 97.3211 262.084 97.2404 262.213 97.1852C262.465 97.0668 262.756 97.013 263.046 97.0251C263.335 97.048 263.624 97.1341 263.86 97.2928C264.098 97.4476 264.292 97.6494 264.42 97.901L264.272 98.0059Z" fill="#102048"/>
<path d="M276.501 100.954C276.552 100.686 276.657 100.435 276.796 100.198C276.932 99.9571 277.116 99.7377 277.36 99.5561C277.596 99.3825 277.958 99.2371 278.306 99.3555C278.648 99.4659 278.836 99.7391 278.941 99.9907L278.761 100.119C278.56 99.9625 278.358 99.8521 278.191 99.836C278.027 99.8171 277.862 99.8925 277.687 100.012C277.334 100.261 277.029 100.657 276.701 101.048L276.501 100.954Z" fill="#E28B6D"/>
<path d="M236.951 144.734L220.805 143.129L213.873 150.346C212.975 151.182 213.627 151.999 214.468 151.918L223.431 149.357L233.39 150.411L236.951 144.734Z" fill="#E28B6D"/>
<path d="M289.728 206.342C289.728 206.342 284.01 215.157 274.208 215.665L276.605 203.484L289.728 206.342Z" fill="#102048"/>
<path d="M265.625 117.027C258.258 122.432 253.849 132.431 247.782 135.926C245.12 137.46 229.456 142.23 229.456 142.23L230.318 149.892L256.398 139.514L266.109 127.198L265.625 117.027Z" fill="#102048"/>
<path d="M226.722 209.978C226.672 209.864 232.669 215.808 244.744 219.252L240.855 207.863L226.722 209.978Z" fill="#102048"/>
<path d="M232.899 206.992L242.841 211.505L236.63 221.374L227.625 218.195L232.899 206.992Z" fill="#F9B384"/>
<path d="M234.978 231.778L214.925 225.546C214.41 225.386 214.421 224.658 214.941 224.514L225.665 221.545L227.636 218.16L236.66 221.281C236.655 224.392 236.215 227.488 235.353 230.478L234.978 231.778Z" fill="#FC6B58"/>
<path d="M226.723 209.977L243.201 179.311C248.135 170.007 250.861 164.017 259.368 160.964C265.746 158.674 277.619 158.301 285.366 158.451L285.66 172.833L263.861 186.546L244.746 219.249C239.579 214.354 233.501 211.804 226.723 209.977Z" fill="#102048"/>
<path d="M310.946 182.023V229.358" stroke="#F8FAFB" stroke-width="4.99957" stroke-miterlimit="10"/>
<path d="M304.1 154.353C310.692 154.353 313.892 136.225 322.438 138.802C345.572 145.777 328.582 206.867 282.037 179.459L304.1 154.353Z" fill="#F8FAFB"/>
<path d="M321.753 231.884C321.753 229.096 316.914 226.836 310.946 226.836C304.979 226.836 300.14 229.096 300.14 231.884H321.753Z" fill="#1F3C88"/>
<path d="M273.793 206.976L282.037 201.043L287.792 211.078L280.348 217.029L273.793 206.976Z" fill="#F9B384"/>
<path d="M295.86 217.921L279.971 231.65C279.577 231.99 278.977 231.612 279.121 231.113L282.2 220.438L280.326 217L287.729 211.004C290.397 212.637 292.825 214.628 294.941 216.924L295.86 217.921Z" fill="#FC6B58"/>
<path d="M308.684 157.692L271.734 158.518C270.5 153.092 268.445 148.459 266.506 144.941C265.522 143.161 264.566 141.665 263.755 140.49L272.069 131.243L273.968 129.137L261.272 119.617C265.672 113.227 270.375 111.227 277.135 112.681C299.643 117.523 307.373 147.65 308.684 157.692Z" fill="#708CD5"/>
<path d="M236.326 148.405L223.802 145.566L213.844 150.881C213.173 151.411 213.712 152.001 214.553 151.922H224.339L233.34 153.331L236.326 148.405Z" fill="#F9B384"/>
<path d="M208.15 154.148H224.337V151.926H208.15V154.148Z" fill="white"/>
<path d="M207.163 154.147H210.504L197.698 122.637H194.357L207.163 154.147Z" fill="#102048"/>
<path d="M272.07 131.242C271.341 134.707 269.847 140.145 266.506 144.941C265.522 143.161 264.566 141.665 263.755 140.49L272.07 131.242Z" fill="#1F3C88"/>
<path d="M229.655 144.01C228.36 147.544 228.908 150.874 230.796 154.148L251.712 150.903C254.604 150.487 257.271 149.047 259.271 146.823L264.646 140.843L273.972 129.137L261.273 119.617C255.975 127.309 251.403 137.507 251.403 137.507L229.655 144.01Z" fill="#708CD5"/>
<path d="M302.78 176.528C297.701 180.457 283.594 180.043 276.735 179.578L289.728 206.344C279.181 208.413 274.208 215.667 274.208 215.667C274.208 215.667 241.966 182.026 250.582 167.838C260.457 151.575 308.683 157.695 308.683 157.695C309.56 161.811 309.011 171.706 302.78 176.528Z" fill="#1F3C88"/>
<path d="M285.658 179.974C284.141 180.04 282.624 180.025 281.11 179.99C279.594 179.961 278.081 179.868 276.568 179.79C275.057 179.694 273.546 179.576 272.037 179.443C270.53 179.299 269.024 179.145 267.521 178.937L267.542 178.719C269.055 178.779 270.565 178.868 272.075 178.954L276.603 179.235L281.13 179.518C282.639 179.606 284.148 179.688 285.658 179.756V179.974Z" fill="#708CD5"/>
<path d="M247.706 98.2136C249.026 95.36 249.481 92.0847 248.803 88.7778C247.107 80.4981 238.967 75.1715 230.624 76.881C222.281 78.5906 216.892 86.6892 218.589 94.9689C220.285 103.249 228.425 108.575 236.768 106.866C239.755 106.254 242.362 104.819 244.402 102.854L248.967 104.358L247.708 98.2134L247.706 98.2136Z" fill="#D3DFFF"/>
<path d="M241.059 92.1218C241.994 91.8914 242.565 90.9525 242.336 90.0248C242.107 89.0971 241.163 88.5319 240.228 88.7624C239.293 88.9929 238.722 89.9317 238.951 90.8594C239.18 91.7871 240.124 92.3523 241.059 92.1218Z" fill="white"/>
<path d="M234.044 93.5675C234.988 93.3743 235.597 92.4588 235.405 91.5227C235.213 90.5866 234.293 89.9843 233.35 90.1775C232.406 90.3707 231.797 91.2862 231.989 92.2223C232.181 93.1585 233.101 93.7607 234.044 93.5675Z" fill="white"/>
<path d="M227.097 94.9894C228.04 94.7961 228.649 93.8806 228.458 92.9445C228.266 92.0084 227.345 91.4061 226.402 91.5993C225.459 91.7926 224.85 92.7081 225.042 93.6442C225.234 94.5804 226.154 95.1826 227.097 94.9894Z" fill="white"/>
</svg>
