<svg width="24" height="24" viewBox="0 0 24 24" fill="none" xmlns="http://www.w3.org/2000/svg">
<path d="M2.99976 22H20.9998C21.265 22 21.5193 21.8947 21.7069 21.7071C21.8944 21.5196 21.9998 21.2652 21.9998 21C21.9998 20.7348 21.8944 20.4804 21.7069 20.2929C21.5193 20.1054 21.265 20 20.9998 20H12.9998V18H19.9998C20.265 18 20.5193 17.8947 20.7069 17.7071C20.8944 17.5196 20.9998 17.2652 20.9998 17V4.00002C20.9998 3.7348 20.8944 3.48045 20.7069 3.29291C20.5193 3.10537 20.265 3.00002 19.9998 3.00002H13.9998C13.8681 2.99926 13.7377 3.02448 13.6158 3.07425C13.494 3.12401 13.3832 3.19734 13.2898 3.29002L11.5898 5.00002H3.99976C3.73454 5.00002 3.48019 5.10537 3.29265 5.29291C3.10511 5.48045 2.99976 5.7348 2.99976 6.00002V17C2.99976 17.2652 3.10511 17.5196 3.29265 17.7071C3.48019 17.8947 3.73454 18 3.99976 18H10.9998V20H2.99976C2.73454 20 2.48019 20.1054 2.29265 20.2929C2.10511 20.4804 1.99976 20.7348 1.99976 21C1.99976 21.2652 2.10511 21.5196 2.29265 21.7071C2.48019 21.8947 2.73454 22 2.99976 22ZM4.99976 16V7.00002H11.9998C12.1314 7.00078 12.2618 6.97555 12.3837 6.92579C12.5055 6.87602 12.6163 6.8027 12.7098 6.71002L14.4098 5.00002H18.9998V16H4.99976Z" fill="#303C6C"/>
</svg>
