<svg width="41" height="41" viewBox="0 0 41 41" fill="none" xmlns="http://www.w3.org/2000/svg">
<g clip-path="url(#clip0_44_6907)">
<path d="M26.4349 10.1594C27.8749 10.1594 28.9816 9.83941 29.7549 9.19942C30.4483 8.61275 30.7949 7.83941 30.7949 6.87942C30.7949 5.91941 30.4483 5.14608 29.7549 4.55941C28.9816 3.91941 27.8749 3.59941 26.4349 3.59941C25.1016 3.59941 23.8349 3.86608 22.6349 4.39941C21.6216 4.87941 20.7016 5.51941 19.8749 6.31941C19.1283 5.91941 18.3683 5.71942 17.5949 5.71942C16.8216 5.71942 16.1016 5.90608 15.4349 6.27942C14.6083 5.47941 13.6883 4.85275 12.6749 4.39941C11.4749 3.86608 10.2216 3.59941 8.91495 3.59941C7.47495 3.59941 6.36828 3.91941 5.59495 4.55941C4.90161 5.14608 4.55495 5.91941 4.55495 6.87942C4.55495 7.83941 4.90161 8.61275 5.59495 9.19942C6.36828 9.83941 7.47495 10.1594 8.91495 10.1594H16.1949V37.3994H19.1549V10.1594H26.4349ZM26.4349 5.79942C27.8749 5.79942 28.5949 6.15941 28.5949 6.87942C28.5949 7.59941 27.8749 7.95942 26.4349 7.95942H21.4349L21.3949 7.87942C22.8349 6.49275 24.5149 5.79942 26.4349 5.79942ZM13.7549 7.95942H8.91495C8.30161 7.95942 7.80828 7.89275 7.43495 7.75941C6.95495 7.57275 6.71495 7.27942 6.71495 6.87942C6.71495 6.15941 7.44828 5.79942 8.91495 5.79942C10.7816 5.79942 12.4349 6.46608 13.8749 7.79942L13.7549 7.95942ZM0.194946 13.3194V17.6794H15.4749V11.1194H2.35495C1.76828 11.1194 1.26161 11.3327 0.834946 11.7594C0.40828 12.1861 0.194946 12.7061 0.194946 13.3194ZM2.35495 35.1994C2.35495 35.7861 2.57495 36.2994 3.01495 36.7394C3.45495 37.1794 3.96828 37.3994 4.55495 37.3994H15.4749V19.8794H2.35495V35.1994ZM32.9949 11.1194H19.9549V17.7194H35.1949V13.3194C35.1949 12.7061 34.9816 12.1861 34.5549 11.7594C34.1283 11.3327 33.6083 11.1194 32.9949 11.1194ZM19.9549 37.3994H30.7949C31.4083 37.3994 31.9283 37.1794 32.3549 36.7394C32.7816 36.2994 32.9949 35.7861 32.9949 35.1994V19.8794H19.9549V37.3994Z" fill="white"/>
</g>
<defs>
<clipPath id="clip0_44_6907">
<rect width="40.11" height="40" fill="white" transform="matrix(1 0 0 -1 0.189941 40.4795)"/>
</clipPath>
</defs>
</svg>
