<svg width="29" height="36" viewBox="0 0 29 36" fill="none" xmlns="http://www.w3.org/2000/svg">
<path d="M27.6631 30.1195C25.9831 27.6662 24.1031 25.9328 22.0231 24.9195C20.3965 24.1462 18.8098 23.8528 17.2631 24.0395C15.5565 24.2795 14.1031 25.0795 12.9031 26.4395C12.4498 26.9462 11.7965 27.7462 10.9431 28.8395L9.90314 30.1995C8.88981 31.4262 8.10314 32.3195 7.54314 32.8795C6.71648 33.6528 5.76981 33.7328 4.70314 33.1195C4.06314 32.6928 3.60981 32.3462 3.34314 32.0795C2.27648 31.0395 2.03648 29.9595 2.62314 28.8395C2.75648 28.5995 2.92314 28.4062 3.12314 28.2595C3.32314 28.1128 3.46314 28.0528 3.54314 28.0795L3.82314 28.1995L3.94314 28.2395C4.31648 28.2928 4.59648 28.3195 4.78314 28.3195C5.07648 28.3195 5.32981 28.2262 5.54314 28.0395C8.95648 25.2128 11.5031 23.0795 13.1831 21.6395C15.1031 20.0662 16.9565 18.5328 18.7431 17.0395L19.3831 16.4795C19.5698 16.3195 19.6298 16.1528 19.5631 15.9795C19.4965 15.8062 19.3165 15.6528 19.0231 15.5195C16.7831 14.5595 15.2631 13.0395 14.4631 10.9595L14.2631 10.4395C14.1298 10.1195 14.0498 9.97282 14.0231 9.99949L13.9831 10.0395C13.9831 10.0662 13.9698 10.0795 13.9431 10.0795L2.34314 23.8795C1.83648 24.4928 1.66314 25.1462 1.82314 25.8395C1.90314 26.1862 1.82314 26.4928 1.58314 26.7595C0.72981 27.7462 0.26981 28.7662 0.203143 29.8195C0.136476 30.8728 0.476476 31.8528 1.22314 32.7595C1.83648 33.5328 2.55648 34.1862 3.38314 34.7195C4.36981 35.3862 5.36981 35.6728 6.38314 35.5795C7.39648 35.4862 8.34314 35.0262 9.22314 34.1995C9.78314 33.6395 10.2765 33.0928 10.7031 32.5595L11.9431 30.9195C12.8231 29.7462 13.4898 28.8795 13.9431 28.3195C14.9298 27.1195 16.0098 26.4128 17.1831 26.1995C18.8365 25.8795 20.4898 26.2795 22.1431 27.3995C23.9031 28.5728 25.4898 30.3728 26.9031 32.7995C27.0898 33.1462 27.3098 33.3662 27.5631 33.4595C27.8165 33.5528 28.0831 33.5262 28.3631 33.3795C28.6431 33.2328 28.8165 33.0195 28.8831 32.7395C28.9498 32.4595 28.8898 32.1462 28.7031 31.7995C28.3031 31.1328 27.9565 30.5728 27.6631 30.1195ZM28.2231 10.4395C28.5965 9.42616 28.7231 8.30615 28.6031 7.07949C28.4831 5.85282 28.0631 4.71282 27.3431 3.65949C26.6231 2.60616 25.7165 1.81282 24.6231 1.27949C23.4765 0.692822 22.2631 0.479488 20.9831 0.639488C20.2631 0.719486 19.5165 0.946156 18.7431 1.31949C18.4765 1.45282 18.3165 1.67282 18.2631 1.97949C18.2098 2.28616 18.2765 2.57282 18.4631 2.83949C20.6231 6.06615 23.4098 8.73282 26.8231 10.8395C27.0631 10.9995 27.3298 11.0395 27.6231 10.9595C27.9165 10.8795 28.1165 10.7062 28.2231 10.4395ZM26.2231 13.2795C26.3298 13.1995 26.3231 13.0795 26.2031 12.9195C26.0831 12.7595 25.8898 12.5995 25.6231 12.4395C22.1298 10.1462 19.3031 7.39949 17.1431 4.19949C16.9565 3.93282 16.7965 3.73949 16.6631 3.61949C16.5298 3.49949 16.4365 3.46616 16.3831 3.51949L16.2231 3.75949C15.6365 4.71949 15.3098 5.76616 15.2431 6.89949C15.1765 8.03282 15.3498 9.13949 15.7631 10.2195C16.1765 11.2995 16.8098 12.2262 17.6631 12.9995C18.8365 14.0928 20.1965 14.6928 21.7431 14.7995C23.2898 14.9062 24.6898 14.4928 25.9431 13.5595L26.2231 13.2795Z" fill="white"/>
</svg>
