<svg width="22" height="22" viewBox="0 0 22 22" fill="none" xmlns="http://www.w3.org/2000/svg">
<path fill-rule="evenodd" clip-rule="evenodd" d="M5.7197 4.66541V3.08141C5.7197 2.38128 5.99745 1.70966 6.49272 1.21546C6.98798 0.720192 7.65957 0.441406 8.3597 0.441406H13.6397C14.3398 0.441406 15.0104 0.720192 15.5056 1.21546C16.0009 1.70966 16.2797 2.38128 16.2797 3.08141V4.66541H18.9197C19.6198 4.66541 20.2904 4.94419 20.7856 5.43946C21.2809 5.93366 21.5597 6.60528 21.5597 7.30541V18.9214C21.5597 19.6215 21.2809 20.2932 20.7856 20.7884C20.2904 21.2837 19.6198 21.5614 18.9197 21.5614C15.3399 21.5614 6.65954 21.5614 3.0797 21.5614C2.37957 21.5614 1.70798 21.2837 1.21272 20.7884C0.717452 20.2932 0.439697 19.6215 0.439697 18.9214V7.30541C0.439697 6.60528 0.717452 5.93366 1.21272 5.43946C1.70798 4.94419 2.37957 4.66541 3.0797 4.66541H5.7197ZM2.5517 11.4111V18.9214C2.5517 19.0619 2.60661 19.196 2.70587 19.2952C2.80513 19.3945 2.93925 19.4494 3.0797 19.4494H18.9197C19.0591 19.4494 19.1932 19.3945 19.2925 19.2952C19.3917 19.196 19.4477 19.0619 19.4477 18.9214V11.4851L11.325 14.1187C11.1106 14.1874 10.8793 14.1874 10.665 14.1156L2.5517 11.4111ZM19.4477 9.26429V7.30541C19.4477 7.16601 19.3917 7.0319 19.2925 6.93264C19.1932 6.83337 19.0591 6.77741 18.9197 6.77741C15.3399 6.77741 6.65954 6.77741 3.0797 6.77741C2.93925 6.77741 2.80513 6.83337 2.70587 6.93264C2.60661 7.0319 2.5517 7.16601 2.5517 7.30541V9.18509L11.0039 12.0025L19.4477 9.26429ZM14.1677 4.66541V3.08141C14.1677 2.94201 14.1117 2.8079 14.0125 2.70864C13.9132 2.60937 13.7791 2.55341 13.6397 2.55341C12.1296 2.55341 9.86872 2.55341 8.3597 2.55341C8.21925 2.55341 8.08513 2.60937 7.98587 2.70864C7.88661 2.8079 7.8317 2.94201 7.8317 3.08141V4.66541H14.1677Z" fill="#303C6C"/>
</svg>
